<svg height="402pt" viewBox="-22 0 402 402.77845" width="402pt" xmlns="http://www.w3.org/2000/svg"><path d="m296.851562 395.953125v-88.746094c0-14.417969 5.34375-28.296875 14.929688-39.074219 26.285156-29.539062 41.597656-69.050781 39.492188-112.164062-3.835938-78.394531-66.703126-142.964844-144.96875-148.699219-89.761719-6.578125-164.953126 62.335938-168.691407 149.765625l-.171875-.019531-29.515625 82.644531c-2.453125 6.863282 1.667969 14.335938 8.789063 15.910156l32.042968 7.121094 8.003907 74.644532c.65625 6.15625 5.855469 10.828124 12.050781 10.828124h64.199219v47.789063z" fill="#ffd578"/><path d="m303.675781 395.953125v-88.746094c0-12.734375 4.714844-24.996093 13.207031-34.535156 25.738282-28.921875 41.410157-67.078125 41.410157-108.835937 0-2.726563-.070313-5.453126-.199219-8.199219-4.050781-81.878907-69.515625-149.136719-151.296875-155.179688-4.136719-.304687-8.257813-.457031-12.335937-.457031-88.113282.0117188-159.945313 69.53125-163.671876 156.742188l6.824219.296874.527344-6.816406-.179687-.007812c-3.058594-.234375-5.917969 1.613281-6.949219 4.511718l-29.511719 82.640626c-.753906 2.089843-1.109375 4.25-1.109375 6.375-.011719 8.605468 5.914063 16.484374 14.835937 18.496093l27.273438 6.050781 7.476562 69.777344c1.03125 9.628906 9.15625 16.925782 18.835938 16.925782h57.378906v40.964843c0 3.773438 3.058594 6.820313 6.824219 6.820313 3.773437 0 6.832031-3.046875 6.832031-6.820313v-47.789062c0-1.800781-.738281-3.554688-2-4.828125-1.273437-1.273438-3.03125-2-4.832031-2h-64.203125c-2.699219.007812-4.988281-2.042969-5.265625-4.726563l-7.996094-74.644531c-.3125-2.914062-2.457031-5.304688-5.308593-5.941406l-32.050782-7.121094c-2.5-.535156-4.140625-2.789062-4.152344-5.164062l.316407-1.78125 29.511719-82.644532-6.425782-2.296875-.53125 6.804688.179688.015625c1.839844.136718 3.667968-.472656 5.050781-1.703125 1.386719-1.226563 2.214844-2.964844 2.292969-4.8125 3.40625-79.914063 69.257812-143.679688 150.027344-143.667969 3.738281 0 7.519531.140625 11.339843.417969 74.773438 5.441406 135.039063 67.332031 138.652344 142.238281.121094 2.511719.1875 5.019531.1875 7.523438 0 38.316406-14.347656 73.207031-37.960937 99.753906-10.6875 12.015625-16.65625 27.503906-16.648438 43.617187v88.75c0 3.773438 3.046875 6.820313 6.824219 6.820313 3.773437 0 6.820312-3.050782 6.820312-6.824219" fill="#54596e"/><path d="m194.449219 27.316406c-71.628907 0-129.699219 58.070313-129.699219 129.699219 0 71.636719 58.066406 129.714844 129.699219 129.714844 71.636719 0 129.710937-58.078125 129.710937-129.714844 0-71.628906-58.074218-129.699219-129.710937-129.699219" fill="#ddbc76"/><path d="m327.40625 21.328125c-28.84375-10.960937-62.691406-4.886719-85.933594 18.351563-23.234375 23.238281-29.3125 57.078124-18.347656 85.933593 28.847656 10.960938 62.695312 4.886719 85.929688-18.351562 23.238281-23.242188 29.3125-57.082031 18.351562-85.933594zm0 0" fill="#9af43b"/><g fill="#54596e"><path d="m327.40625 21.328125 2.425781-6.382813c-10.050781-3.820312-20.660156-5.734374-31.261719-5.734374-22.386718-.011719-44.835937 8.535156-61.925781 25.644531-17.085937 17.082031-25.640625 39.523437-25.632812 61.90625 0 10.605469 1.914062 21.207031 5.734375 31.273437.691406 1.824219 2.132812 3.265625 3.957031 3.957032 10.054687 3.816406 20.660156 5.722656 31.257813 5.722656 22.386718.011718 44.832031-8.542969 61.917968-25.628906 17.09375-17.089844 25.648438-39.539063 25.636719-61.925782 0-10.609375-1.90625-21.214844-5.726563-31.261718-.695312-1.824219-2.132812-3.265626-3.957031-3.953126l-2.425781 6.382813-6.378906 2.421875c3.21875 8.472656 4.835937 17.441406 4.835937 26.410156-.007812 18.953125-7.1875 37.8125-21.636719 52.269532-14.453124 14.449218-33.320312 21.628906-52.265624 21.636718-8.960938 0-17.925782-1.613281-26.410157-4.835937l-2.425781 6.382812 6.382812-2.425781c-3.226562-8.5-4.84375-17.464844-4.84375-26.421875.007813-18.941406 7.1875-37.804687 21.636719-52.257813 14.457031-14.464843 33.320313-21.636718 52.269531-21.648437 8.960938 0 17.925782 1.621094 26.410157 4.847656l2.425781-6.378906-6.378906 2.421875zm0 0"/><path d="m202.859375 155.535156 91.714844-91.722656c1.5-1.5 2.21875-3.613281 1.941406-5.710938l-5.445313-41.683593c-.488281-3.738281-3.917968-6.371094-7.65625-5.882813-3.738281.492188-6.371093 3.917969-5.882812 7.65625l5.011719 38.34375-89.335938 89.34375c-2.667969 2.664063-2.667969 6.984375-.003906 9.65625 2.667969 2.664063 6.992187 2.664063 9.660156 0zm0 0"/><path d="m314.9375 95.6875-58.464844-9.121094c-3.726562-.582031-7.21875 1.964844-7.800781 5.691406-.578125 3.726563 1.96875 7.21875 5.695313 7.796876l58.464843 9.121093c3.726563.578125 7.21875-1.964843 7.800781-5.695312.578126-3.71875-1.96875-7.214844-5.695312-7.792969"/></g><path d="m66.78125 21.328125c28.851562-10.960937 62.699219-4.886719 85.933594 18.351563 23.238281 23.238281 29.3125 57.078124 18.351562 85.933593-28.84375 10.960938-62.691406 4.886719-85.933594-18.351562-23.242187-23.242188-29.3125-57.082031-18.351562-85.933594zm0 0" fill="#9af43b"/><path d="m66.78125 21.328125 2.425781 6.378906c8.484375-3.226562 17.453125-4.847656 26.414063-4.847656 18.949218.011719 37.8125 7.183594 52.261718 21.644531 14.457032 14.457032 21.632813 33.316406 21.640626 52.265625 0 8.960938-1.613282 17.921875-4.839844 26.417969l6.382812 2.425781-2.421875-6.382812c-8.484375 3.222656-17.449219 4.835937-26.414062 4.835937-18.945313-.011718-37.8125-7.191406-52.269531-21.636718-14.449219-14.457032-21.628907-33.320313-21.636719-52.269532 0-8.972656 1.613281-17.933594 4.839843-26.410156l-6.382812-2.421875 2.425781 6.378906-2.425781-6.378906-6.382812-2.433594c-3.820313 10.050781-5.730469 20.660157-5.730469 31.265625-.007813 22.386719 8.542969 44.835938 25.636719 61.925782 17.089843 17.085937 39.539062 25.636718 61.925781 25.628906 10.601562 0 21.207031-1.90625 31.257812-5.722656 1.824219-.691407 3.269531-2.136719 3.960938-3.960938 3.816406-10.054688 5.726562-20.65625 5.726562-31.261719.007813-22.386719-8.542969-44.832031-25.636719-61.917969-17.082031-17.105468-39.535156-25.652343-61.917968-25.640624-10.605469 0-21.214844 1.914062-31.269532 5.734374-1.824218.6875-3.257812 2.125-3.953124 3.949219zm0 0" fill="#54596e"/><path d="m103.117188 16.417969-5.441407 41.683593c-.273437 2.074219.4375 4.183594 1.910157 5.679688l88.039062 89.207031v44.988281c0 3.773438 3.054688 6.828126 6.824219 6.828126 3.773437 0 6.828125-3.054688 6.828125-6.828126v-47.785156c0-1.800781-.703125-3.519531-1.96875-4.796875l-87.660156-88.832031 5.007812-38.371094c.488281-3.738281-2.148438-7.167968-5.886719-7.652344-3.738281-.488281-7.164062 2.148438-7.652343 5.886719zm0 0" fill="#54596e"/><path d="m81.359375 109.175781 58.464844-9.117187c3.726562-.582032 6.273437-4.074219 5.695312-7.796875-.582031-3.726563-4.074219-6.273438-7.796875-5.695313l-58.46875 9.121094c-3.726562.582031-6.273437 4.074219-5.691406 7.796875.582031 3.726563 4.070312 6.273437 7.796875 5.691406" fill="#54596e"/><path d="m214.933594 211.632812c0 11.3125-9.171875 20.480469-20.480469 20.480469-11.3125 0-20.480469-9.167969-20.480469-20.480469 0-11.308593 9.167969-20.480468 20.480469-20.480468 11.308594 0 20.480469 9.171875 20.480469 20.480468zm0 0" fill="#ff927d"/><path d="m214.933594 211.632812h6.824218c-.003906-15.085937-12.21875-27.304687-27.304687-27.304687s-27.304687 12.21875-27.308594 27.304687c.003907 15.085938 12.222657 27.304688 27.308594 27.304688s27.300781-12.21875 27.304687-27.304688h-13.652343c-.011719 7.539063-6.109375 13.636719-13.652344 13.652344-7.542969-.015625-13.640625-6.113281-13.652344-13.652344.011719-7.542968 6.109375-13.640624 13.652344-13.65625 7.542969.015626 13.640625 6.113282 13.652344 13.65625zm0 0" fill="#54596e"/><path d="m283.199219 170.671875c0 11.3125-9.167969 20.480469-20.480469 20.480469-11.308594 0-20.480469-9.167969-20.480469-20.480469 0-11.308594 9.171875-20.476563 20.480469-20.476563 11.3125 0 20.480469 9.167969 20.480469 20.476563zm0 0" fill="#61c5a8"/><path d="m283.199219 170.671875h6.828125c-.003906-15.085937-12.222656-27.304687-27.308594-27.304687s-27.304688 12.21875-27.304688 27.304687 12.21875 27.304687 27.304688 27.304687 27.304688-12.21875 27.308594-27.304687h-13.65625c-.011719 7.542969-6.109375 13.636719-13.652344 13.65625-7.542969-.019531-13.640625-6.113281-13.652344-13.65625.011719-7.542969 6.109375-13.636719 13.652344-13.65625 7.542969.019531 13.640625 6.113281 13.652344 13.65625zm0 0" fill="#54596e"/><path d="m296.851562 238.941406c0 11.308594-9.167968 20.480469-20.480468 20.480469-11.308594 0-20.476563-9.171875-20.476563-20.480469 0-11.3125 9.167969-20.480468 20.476563-20.480468 11.3125 0 20.480468 9.167968 20.480468 20.480468zm0 0" fill="#61c5a8"/><path d="m296.851562 238.941406h6.828126c-.003907-15.089844-12.222657-27.308594-27.308594-27.308594-15.082032 0-27.300782 12.21875-27.304688 27.308594.003906 15.082032 12.222656 27.300782 27.304688 27.300782 15.085937 0 27.304687-12.21875 27.308594-27.300782h-13.652344c-.015625 7.539063-6.113282 13.636719-13.65625 13.652344-7.539063-.015625-13.636719-6.113281-13.652344-13.652344.015625-7.542968 6.113281-13.640625 13.652344-13.65625 7.542968.015625 13.640625 6.113282 13.65625 13.65625zm0 0" fill="#54596e"/><path d="m139.839844 177.5c0 11.3125-9.167969 20.480469-20.480469 20.480469s-20.480469-9.167969-20.480469-20.480469 9.167969-20.480469 20.480469-20.480469 20.480469 9.167969 20.480469 20.480469zm0 0" fill="#61c5a8"/><path d="m139.839844 177.5h6.824218c0-15.085938-12.21875-27.304688-27.304687-27.304688s-27.304687 12.21875-27.308594 27.304688c.003907 15.082031 12.222657 27.304688 27.308594 27.304688s27.304687-12.222657 27.304687-27.304688h-13.652343c-.011719 7.539062-6.109375 13.636719-13.652344 13.652344-7.542969-.015625-13.640625-6.113282-13.652344-13.652344.011719-7.542969 6.109375-13.640625 13.652344-13.65625 7.542969.015625 13.640625 6.113281 13.652344 13.65625zm0 0" fill="#54596e"/></svg>