<svg id="Capa_1" enable-background="new 0 0 512 512" height="512" viewBox="0 0 512 512" width="512" xmlns="http://www.w3.org/2000/svg"><g><path d="m498.511 256c0 6.109 13.275 12.169 12.854 18.171-1.561 22.254-5.966 43.724-12.854 64.048-12.598 37.172-42.315 63.975-69.316 91.271-40.968 41.415-87.158 75.457-148.475 81.331-8.135.78-16.381 1.179-24.72 1.179-20.726 0-40.878-2.463-60.177-7.113-19.634-4.73-34.738-18.207-52.317-27.172-15.307-7.806-33.374-10.623-46.709-21.227-58.982-46.898-96.797-119.277-96.797-200.488 0-22.017 2.78-43.386 8.007-63.773 14.705-57.351 62.134-88.023 108.194-122.463 42.149-31.517 80.979-69.266 137.541-69.754.752-.007 1.505-.01 2.258-.01 57.437 0 110.456 18.915 153.167 50.857 62.426 46.684 89.344 121.195 89.344 205.143z" fill="#bed8fb"/><path d="m349.277 17.525c72.928 45.112 121.516 125.818 121.516 217.872 0 141.385-114.615 256-256 256-32.912 0-64.374-6.211-93.277-17.525 16.995 10.513 36.213 14.213 55.545 20.553 6.445 2.114 12.103 8.858 18.762 10.463 19.299 4.649 39.45 7.112 60.177 7.112 8.339 0 16.585-.399 24.719-1.178 69.677-6.676 121.921-46.153 163.962-97.363 19.34-23.558 43.837-45.758 53.83-75.24 6.888-20.324 11.293-41.794 12.854-64.048.421-6.002-6.91-15.447-6.91-21.556 0-83.948-32.862-155.074-95.288-201.758-18.237-13.639-38.353-24.902-59.89-33.332z" fill="#9dc6fb"/><g fill="#95d6a4"><path d="m180.686 462.062-35.905-16.46c-6.559-3.007-14.073-3.148-20.74-.388l-27.243 11.275c28.65 22.781 62.295 39.549 99.026 48.398v-19.231c0-10.149-5.914-19.365-15.138-23.594z"/><path d="m174.599 148.821c2.399-3.965 5.482-7.57 9.194-10.627 9.649-7.946 15.239-19.791 15.239-32.29v-26.536c0-9.978 3.567-19.627 10.057-27.207l44.654-52.151c-118.373 1.024-217.575 82.385-245.736 192.217 17.034.206 33.989-4.037 49.109-12.531l7.093-3.985c6.09-3.421 13.301 2.157 11.52 8.911l-5.835 22.126c-4.412 16.731-1.15 34.557 8.9 48.642l14.299 20.039c5.197 7.283 6.683 16.581 4.012 25.121l-4.107 13.133c-9.806 31.361 4.053 65.265 33.019 80.778 8.501 4.552 19.058 2.121 24.71-5.691l38.519-53.232c10.067-13.913 22.967-25.536 37.851-34.104 13.672-7.871 14.83-27.162 2.196-36.612l-10.334-7.729c-14.916-11.156-27.114-25.405-35.822-41.67z"/><path d="m450.162 304.603-55.459-1.133c-8.21 2.149-16.984 1.462-24.849-2.077l-10.876-4.895c-9.86-4.438-21.481-.838-27.106 8.396l-11.771 19.324c-10.462 17.175-7.619 39.308 6.845 53.28l13.676 13.212c9.656 9.328 8.108 25.218-3.167 32.507-12.224 7.902-20.242 20.886-21.835 35.354-.875 7.953-4.084 15.469-9.222 21.601l-25.68 30.649c101.731-9.747 186.078-79.031 217.791-172.603z"/><path d="m409.167 50.857-4.797 12.524c-7.676 20.042-21.357 37.223-39.172 49.191-6.561 4.408-7.625 13.638-2.239 19.423l1.716 1.843c17.867 19.192 23.286 46.865 13.977 71.378-3.654 9.623 2.927 20.066 13.185 20.921l5.157.43c7.149-5.444 57.061 1.048 63.983 15.172 8.772 4.071 17.192 8.942 25.149 14.573l25.239 17.861c.421-6.004.635-12.064.635-18.173 0-83.948-40.407-158.459-102.833-205.143z"/></g><path d="m498.511 338.219-39.08-27.172c-22.673 73.402-77.472 132.7-147.972 161.47-1.384 2.721-3.078 5.291-5.059 7.655l-25.68 30.649c101.73-9.747 186.078-79.031 217.791-172.602z" fill="#78c2a4"/><path d="m195.824 504.886v-14.182c-26.044-1.908-51.006-7.712-74.306-16.831 22.661 14.016 47.672 24.597 74.306 31.013z" fill="#78c2a4"/><path d="m409.167 50.857-4.79 12.509c41.268 45.451 66.416 105.804 66.416 172.031 0 3.746-.081 7.474-.24 11.181 5.357 2.936 10.557 6.183 15.573 9.733l25.239 17.861c.421-6.003.635-12.063.635-18.172 0-83.948-40.407-158.459-102.833-205.143z" fill="#78c2a4"/><path d="m186.644 274.235h-6.181c-4.267 0-7.726-3.459-7.726-7.726s3.459-7.726 7.726-7.726h6.181c4.267 0 7.726 3.459 7.726 7.726s-3.459 7.726-7.726 7.726z" fill="#f1eaf9"/><path d="m360.982 351.449h-11.808c-4.268 0-7.726-3.459-7.726-7.726 0-4.268 3.459-7.726 7.726-7.726h11.808c4.268 0 7.726 3.459 7.726 7.726s-3.458 7.726-7.726 7.726zm-36.408-.001c-.013 0-.026 0-.039 0-4.755-.024-9.444-.768-13.938-2.21-4.062-1.304-6.299-5.655-4.994-9.718s5.652-6.301 9.718-4.994c2.989.96 6.115 1.454 9.29 1.47 4.268.021 7.709 3.498 7.688 7.765-.02 4.252-3.476 7.687-7.725 7.687zm-31.153-16.083c-2.4 0-4.766-1.116-6.276-3.212-2.774-3.852-4.929-8.088-6.405-12.589-1.329-4.054.88-8.42 4.935-9.75 4.052-1.327 8.421.879 9.75 4.935.981 2.993 2.414 5.81 4.261 8.373 2.494 3.463 1.708 8.291-1.755 10.785-1.368.984-2.946 1.458-4.51 1.458zm-9.204-34.663c-3.241 0-6.26-2.055-7.334-5.301-.989-2.988-2.431-5.802-4.285-8.364-2.502-3.457-1.728-8.287 1.728-10.789 3.456-2.5 8.287-1.728 10.789 1.728 2.785 3.847 4.951 8.075 6.438 12.569 1.341 4.051-.856 8.422-4.907 9.763-.806.267-1.625.394-2.429.394zm-24.941-24.655c-.777 0-1.565-.118-2.346-.366-2.989-.952-6.117-1.438-9.295-1.446-4.267-.011-7.718-3.479-7.707-7.745.011-4.261 3.468-7.707 7.726-7.707h.02c4.758.012 9.45.743 13.944 2.174 4.066 1.294 6.314 5.64 5.019 9.705-1.047 3.287-4.087 5.385-7.361 5.385zm-36.223-1.812h-11.808c-4.267 0-7.726-3.459-7.726-7.726s3.459-7.726 7.726-7.726h11.808c4.267 0 7.726 3.459 7.726 7.726s-3.459 7.726-7.726 7.726z" fill="#f1eaf9"/><path d="m391.842 351.449h-6.181c-4.268 0-7.726-3.459-7.726-7.726 0-4.268 3.459-7.726 7.726-7.726h6.181c4.268 0 7.726 3.459 7.726 7.726s-3.458 7.726-7.726 7.726z" fill="#f1eaf9"/><path d="m192.106 183.224c0 28.714-32.898 72.34-40.839 82.452-.871 1.11-2.548 1.11-3.42 0-7.941-10.112-40.839-53.738-40.839-82.452 0-23.499 19.05-42.549 42.549-42.549s42.549 19.05 42.549 42.549z" fill="#e28086"/><circle cx="149.557" cy="183.224" fill="#f1eaf9" r="16.697"/><path d="m465.296 260.437c0 28.714-32.898 72.34-40.839 82.452-.871 1.11-2.548 1.11-3.42 0-7.941-10.112-40.839-53.738-40.839-82.452 0-23.499 19.05-42.549 42.549-42.549 23.5 0 42.549 19.05 42.549 42.549z" fill="#e28086"/><circle cx="422.748" cy="260.437" fill="#f1eaf9" r="16.697"/></g></svg>