<svg id="Capa_1" enable-background="new 0 0 497 497" height="512" viewBox="0 0 497 497" width="512" xmlns="http://www.w3.org/2000/svg"><g><path d="m190.37 369.092 59.078 59.078c4.928-1.315 9.588-3.898 13.455-7.765 11.71-11.71 11.71-30.71 0-42.42l-19.499-61.928z" fill="#ffa061"/><path d="m200.973 400.915 19.5 19.49c7.853 7.853 18.968 10.436 28.975 7.765 2.669-10.007.089-21.125-7.758-28.972l-40.709-40.718z" fill="#ffbb6e"/><path d="m232.796 326.665 69.685 69.685c4.928-1.315 9.588-3.898 13.455-7.765 11.71-11.71 11.71-30.71 0-42.42l-30.106-72.535z" fill="#ffa061"/><path d="m222.186 337.275 51.32 51.31c7.853 7.853 18.968 10.436 28.974 7.765 2.669-10.007.089-21.125-7.758-28.972l-51.316-51.325z" fill="#ffbb6e"/><path d="m275.222 284.239 80.292 80.291c4.928-1.315 9.588-3.898 13.455-7.765 11.71-11.71 11.71-30.71 0-42.42l-40.712-83.141z" fill="#ffa061"/><g fill="#ffbb6e"><path d="m264.613 294.849 61.927 61.917c7.853 7.853 18.968 10.436 28.975 7.765 2.669-10.007.089-21.125-7.758-28.972l-61.922-61.931z"/><path d="m317.649 241.812 90.898 90.898c4.928-1.315 9.588-3.898 13.455-7.765 11.71-11.71 11.71-30.71 0-42.42l-21.319-81.321z"/><path d="m307.039 252.422 72.533 72.523c7.853 7.853 18.968 10.436 28.975 7.765 2.669-10.007.089-21.125-7.758-28.972l-72.529-72.538z"/><path d="m316.027 112.815-301.027-.003v199.71l72.732.003c15.92 0 31.18 6.32 42.43 17.57l70.815 70.815 201.526-201.526z"/></g><path d="m437 82.812-75 99.855 75 99.855h45v-199.71z" fill="#ff8053"/><path d="m222.902 82.816c-15.91 0-31.17 6.32-42.43 17.57l-12.42 12.43c-.01 0-73.49 73.49-73.49 73.49-11.72 11.72-11.72 30.71 0 42.43 11.71 11.72 30.71 11.72 42.42 0l55.92-55.92h94.54c15.91 0 31.17 6.32 42.43 17.57l92.13 92.14h14.998v-199.71z" fill="#ffa061"/><path d="m0 105.312v214.71c0 4.142 3.358 7.5 7.5 7.5h15c4.142 0 7.5-3.358 7.5-7.5v-214.71c0-4.142-3.358-7.5-7.5-7.5h-15c-4.142 0-7.5 3.358-7.5 7.5z" fill="#e5f2ff"/><path d="m467 75.312v214.71c0 4.142 3.358 7.5 7.5 7.5h15c4.142 0 7.5-3.358 7.5-7.5v-214.71c0-4.142-3.358-7.5-7.5-7.5h-15c-4.142 0-7.5 3.358-7.5 7.5z" fill="#c7e3ff"/></g></svg>