<svg height="512" viewBox="0 0 512 512" width="512" xmlns="http://www.w3.org/2000/svg"><g id="Flat"><path d="m464 256a207.945 207.945 0 0 1 -208 208q-7 0-13.89-.46a207.865 207.865 0 0 1 -194.11-207.54c0-106.97 80.73-195.07 184.6-206.69a207.864 207.864 0 0 1 23.4-1.31c105.87 0 193.25 79.08 206.32 181.4a210.368 210.368 0 0 1 1.68 26.6z" fill="#0093b9"/><path d="m464 256a207.769 207.769 0 0 1 -91.31 172.21l-20.69-36.21 16-16v-48l48-16 16-64 30.32-18.6a210.368 210.368 0 0 1 1.68 26.6z" fill="#85bb40"/><path d="m304 144-8 32-56 40-24-16-32-24-24 24v40l-16 16-40 16-16 24v40l-17.89 13.42a207.043 207.043 0 0 1 -22.11-93.42c0-106.97 80.73-195.07 184.6-206.69l-8.6 38.69 48 16 8 24z" fill="#85bb40"/><path d="m304 368-8 24-24 8v24l-24 16-5.89 23.54a207.047 207.047 0 0 1 -43.25-7.49l-6.86-48.05h-16l-32-24-16-24 16-24 16-16 32-16 24 16h16l32 32 32-8z" fill="#85bb40"/><path d="m280 224v64l56 16 56-16v-64z" fill="#f5a922"/><path d="m280 224 56-16 56 16-56 16z" fill="#f8bc1e"/><path d="m336 240v64l56-16v-64z" fill="#f79726"/><path d="m381.313 191.96a8.011 8.011 0 0 1 -2.8-10.871c12.865-22.386 22.124-43.484 27.557-62.8 11.444-40.58 2.67-60.273-6.706-69.648-9.183-9.183-23.307-13.16-41.976-11.827-17.3 1.236-38.115 7.2-60.567 17.312a7.992 7.992 0 0 1 -10.475-3.826v-.005a8.015 8.015 0 0 1 3.943-10.779c24.373-11 46.531-17.273 65.959-18.662 23.509-1.676 41.82 3.862 54.431 16.473 17.783 17.783 21.515 47.279 10.793 85.3-5.791 20.6-15.574 42.931-29.112 66.485a8 8 0 0 1 -11.047 2.848z" fill="#eb5849"/><path d="m83.82 427.456c-19.584 0-35.344-5.626-46.5-16.779-12.608-12.611-18.15-30.925-16.47-54.431 1.389-19.428 7.661-41.586 18.662-65.958a8.015 8.015 0 0 1 10.78-3.944 7.992 7.992 0 0 1 3.826 10.474c-10.114 22.452-16.076 43.268-17.312 60.567-1.335 18.671 2.644 32.794 11.827 41.976 9.375 9.374 29.07 18.149 69.652 6.707 44.842-12.624 99.345-46.072 150.455-92.2a7.991 7.991 0 0 1 11.216.5 8.015 8.015 0 0 1 -.52 11.393c-52.889 47.716-109.7 82.436-156.813 95.7-14.17 4.006-27.163 5.994-38.803 5.995z" fill="#eb5849"/><g fill="#f8bc1e"><path d="m248 152h16v16h-16z"/><path d="m144 120h16v16h-16z"/><path d="m104 216h16v16h-16z"/><path d="m176 336h16v16h-16z"/><path d="m224 392h16v16h-16z"/><path d="m392 344h16v16h-16z"/></g></g></svg>