<svg id="Layer_1" height="512" viewBox="0 0 512 512" width="512" xmlns="http://www.w3.org/2000/svg" data-name="Layer 1"><path d="m341.64 223.94a21.183 21.183 0 0 1 5.92 2.75 21.444 21.444 0 0 1 5.99 29.73 21.214 21.214 0 0 1 -6.93 6.59 29.993 29.993 0 0 1 -7.38 54.45l.01.02v10.89a22.494 22.494 0 0 1 -35.83 18.12l-.01.01a22.5 22.5 0 0 1 -39.16-15.13v-154.5a18.75 18.75 0 1 1 35.04 9.29l.18.33a30.008 30.008 0 0 1 42.17 37.45z" fill="#ffd8b7"/><path d="m65.39 200.44a55.569 55.569 0 1 0 55.73 55.39 55.56 55.56 0 0 0 -55.73-55.39z" fill="#5fa8ed"/><path d="m170.36 223.94a30 30 0 0 1 42.17-37.45l.18-.33a18.749 18.749 0 1 1 35.04-9.28v154.5a22.5 22.5 0 0 1 -39.16 15.12l-.01-.01a22.494 22.494 0 0 1 -35.83-18.12v-10.89l.01-.02a29.993 29.993 0 0 1 -7.38-54.45 21.214 21.214 0 0 1 -6.93-6.59 21.444 21.444 0 0 1 5.99-29.73 21.183 21.183 0 0 1 5.92-2.75z" fill="#ffd8b7"/><path d="m255.83 390.88a55.565 55.565 0 1 0 55.73 55.39 55.56 55.56 0 0 0 -55.73-55.39z" fill="#f3ce7d"/><path d="m446.27 200.44a55.565 55.565 0 1 0 55.73 55.39 55.547 55.547 0 0 0 -55.73-55.39z" fill="#e87187"/><path d="m255.83 10a55.565 55.565 0 1 0 55.73 55.39 55.56 55.56 0 0 0 -55.73-55.39z" fill="#5fcda4"/><path d="m273.24 430.16v4.8a17.24 17.24 0 1 1 -34.48 0v-4.8a17.24 17.24 0 0 1 34.48 0z" fill="#ffd8b7"/><path d="m463.68 239.72v4.8a17.245 17.245 0 1 1 -34.49 0v-4.8a17.245 17.245 0 0 1 34.49 0z" fill="#ffd8b7"/><path d="m94.92 303.14.02.03a55.617 55.617 0 0 1 -58.75 0l.02-.03v-15.57a19.177 19.177 0 0 1 19.18-19.18h20.35a19.177 19.177 0 0 1 19.18 19.18z" fill="#6d7486"/><path d="m475.79 303.14.02.03a55.572 55.572 0 0 1 -58.74-.01l.01-.02v-15.57a19.177 19.177 0 0 1 19.18-19.18h20.35a19.177 19.177 0 0 1 19.18 19.18z" fill="#6d7486"/><path d="m82.81 239.72v4.8a17.245 17.245 0 1 1 -34.49 0v-4.8a17.245 17.245 0 0 1 34.49 0z" fill="#ffd8b7"/><path d="m285.35 112.7.02.03a55.6 55.6 0 0 1 -58.74 0l.02-.03v-15.57a19.177 19.177 0 0 1 19.18-19.18h20.34a19.177 19.177 0 0 1 19.18 19.18z" fill="#6d7486"/><path d="m285.35 493.58.02.03a55.6 55.6 0 0 1 -58.74 0l.02-.03v-15.58a19.177 19.177 0 0 1 19.18-19.18h20.34a19.177 19.177 0 0 1 19.18 19.18z" fill="#6d7486"/><path d="m273.24 49.28v4.81a17.24 17.24 0 0 1 -34.48 0v-4.81a17.24 17.24 0 1 1 34.48 0z" fill="#ffd8b7"/><path d="m228.251 183h.155a15.248 15.248 0 0 0 15.367-14.061l.227-3.246a18.73 18.73 0 0 0 -31.29 20.471l-.18.328a30.007 30.007 0 0 0 -42.17 37.448 21.183 21.183 0 0 0 -5.92 2.75 21.444 21.444 0 0 0 -5.99 29.73 21.214 21.214 0 0 0 6.93 6.59 29.966 29.966 0 0 0 7.5 54.45l.115.02v10.449c0 12.281 9.655 22.7 21.934 22.937a22.21 22.21 0 0 0 13.69-4.363 22.485 22.485 0 0 0 31.632 1.643 2.93 2.93 0 0 0 -3.577-.392 21.885 21.885 0 0 1 -11.661 3.113c-12.306-.191-22.013-10.62-22.013-22.932v-10.455l-.115-.02a29.994 29.994 0 0 1 -7.474-54.45 21.458 21.458 0 0 1 4.953-39.07 29.573 29.573 0 0 1 -2.112-11 29.948 29.948 0 0 1 29.999-29.94z" fill="#d6b69f"/><g fill="#af927e"><path d="m295.944 273.783a8.386 8.386 0 0 1 .363 3.764 6 6 0 0 0 5.164 6.733 6.064 6.064 0 0 0 .792.052 6 6 0 0 0 5.94-5.217 20.484 20.484 0 0 0 -10.878-20.841 8.486 8.486 0 0 1 1.523-7.665 6 6 0 0 0 -9.364-7.5 20.3 20.3 0 0 0 -4.478 13.061 20.308 20.308 0 0 0 -9.117 3.654 6 6 0 1 0 7.013 9.736 8.522 8.522 0 0 1 2.305-1.172 8.5 8.5 0 0 1 10.737 5.4z"/><path d="m333.464 235.144a5.3 5.3 0 0 1 -2.794-6.064 6 6 0 0 0 -11.623-2.987 17.272 17.272 0 0 0 1.459 12.317 5.258 5.258 0 0 1 -1.191 1.806 6 6 0 0 0 8.385 8.584 17.342 17.342 0 0 0 2.023-2.369 5.926 5.926 0 0 0 1.105.112 6 6 0 0 0 2.632-11.4z"/><path d="m285.613 214.89a17.317 17.317 0 0 0 2.872.764 17.586 17.586 0 0 0 .269 1.922 17.291 17.291 0 0 0 1.806 4.934 6 6 0 1 0 10.509-5.792 5.29 5.29 0 0 1 3.587-7.74 5.215 5.215 0 0 1 2.352.057 6 6 0 1 0 2.984-11.623 17.245 17.245 0 0 0 -18.187 6.5 5.331 5.331 0 0 1 -4.1-1.579 6 6 0 0 0 -8.578 8.392 17.141 17.141 0 0 0 6.486 4.165z"/><path d="m321.054 307.1a11.59 11.59 0 0 1 2.936-4.952 6 6 0 0 0 -8.48-8.491 23.584 23.584 0 0 0 -5.132 7.7 11.579 11.579 0 0 1 -11.078-1.194 6 6 0 1 0 -6.881 9.837 23.614 23.614 0 0 0 13.523 4.254 23.611 23.611 0 0 0 2.939-.193 23.637 23.637 0 0 0 5.1 11.308 6 6 0 0 0 9.259-7.634 11.624 11.624 0 0 1 -2.251-10.381c.021-.084.043-.167.065-.254z"/><path d="m236.111 259.819a20.5 20.5 0 0 0 -5.55-2.83 20.715 20.715 0 0 0 -3.567-.824 20.3 20.3 0 0 0 -4.478-13.061 6 6 0 0 0 -9.364 7.5 8.484 8.484 0 0 1 1.523 7.665 20.482 20.482 0 0 0 -10.875 20.846 6 6 0 0 0 5.94 5.217 6.244 6.244 0 0 0 .792-.052 6 6 0 0 0 5.164-6.733 8.5 8.5 0 0 1 11.1-9.165 8.545 8.545 0 0 1 2.306 1.173 6 6 0 1 0 7.013-9.736z"/><path d="m188.49 250.506a6 6 0 0 0 4.195-10.29 5.258 5.258 0 0 1 -1.191-1.806 17.272 17.272 0 0 0 1.459-12.317 6 6 0 0 0 -11.623 2.987 5.3 5.3 0 0 1 -2.794 6.064 6 6 0 0 0 2.632 11.4 5.926 5.926 0 0 0 1.1-.112 17.342 17.342 0 0 0 2.032 2.368 5.983 5.983 0 0 0 4.19 1.706z"/><path d="m204.992 209.035a5.3 5.3 0 0 1 5.939 7.683 6 6 0 1 0 10.509 5.792 17.291 17.291 0 0 0 1.806-4.934 17.586 17.586 0 0 0 .269-1.922 17.317 17.317 0 0 0 2.872-.764 17.141 17.141 0 0 0 6.486-4.165 6 6 0 1 0 -8.578-8.392 5.337 5.337 0 0 1 -4.1 1.58 17.243 17.243 0 0 0 -18.187-6.5 6 6 0 1 0 2.984 11.623z"/><path d="m212.7 300.167a11.582 11.582 0 0 1 -11.078 1.194 23.584 23.584 0 0 0 -5.132-7.7 6 6 0 0 0 -8.48 8.491 11.578 11.578 0 0 1 2.935 4.952c.023.083.045.166.071.248a11.63 11.63 0 0 1 -2.251 10.381 6 6 0 0 0 9.259 7.634 23.65 23.65 0 0 0 5.095-11.307 23.061 23.061 0 0 0 6.716-.112 23.37 23.37 0 0 0 9.746-3.95 6 6 0 1 0 -6.881-9.831z"/></g><path d="m153.628 449.388a5.96 5.96 0 0 1 -2.53-.563 207.706 207.706 0 0 1 -73.808-57.94 6 6 0 0 1 9.357-7.514 195.635 195.635 0 0 0 69.519 54.577 6 6 0 0 1 -2.538 11.44z" fill="#d4e1f4"/><path d="m391.761 429.875a6 6 0 0 1 -3.273-11.033 195.576 195.576 0 0 0 63.664-67.777 6 6 0 0 1 10.455 5.889 207.59 207.59 0 0 1 -67.586 71.953 5.967 5.967 0 0 1 -3.26.968z" fill="#d4e1f4"/><path d="m430.035 130.872a5.987 5.987 0 0 1 -4.682-2.243 195.635 195.635 0 0 0 -69.519-54.577 6 6 0 0 1 5.066-10.877 207.706 207.706 0 0 1 73.808 57.94 6 6 0 0 1 -4.675 9.757z" fill="#d4e1f4"/><path d="m54.614 163.992a6 6 0 0 1 -5.221-8.946 207.59 207.59 0 0 1 67.586-71.953 6 6 0 0 1 6.533 10.065 195.576 195.576 0 0 0 -63.664 67.777 6 6 0 0 1 -5.234 3.057z" fill="#d4e1f4"/><path d="m106.557 366.651-39-8.884a6 6 0 0 0 -7.184 4.517l-8.885 39a6 6 0 0 0 9.045 6.412l47.885-30.116a6 6 0 0 0 -1.861-10.93z" fill="#b0b5ca"/><path d="m374.825 399.556a6 6 0 0 0 -10.7 2.914l-5.056 39.679a6 6 0 0 0 5.194 6.71l39.678 5.056a5.925 5.925 0 0 0 .761.048 6 6 0 0 0 4.743-9.672z" fill="#b0b5ca"/><path d="m458.131 104.487a6 6 0 0 0 -6.664-.184l-47.885 30.116a6 6 0 0 0 1.861 10.93l39 8.884a6 6 0 0 0 7.184-4.517l8.885-39a6 6 0 0 0 -2.381-6.229z" fill="#b0b5ca"/><path d="m147.734 63.141-39.678-5.056a6 6 0 0 0 -5.5 9.624l34.623 44.735a6 6 0 0 0 10.7-2.914l5.056-39.679a6 6 0 0 0 -5.201-6.71z" fill="#b0b5ca"/><path d="m192.147 167.23a6 6 0 0 1 -.69-11.959 58.458 58.458 0 0 1 6.793-.4 6 6 0 0 1 0 12 46.391 46.391 0 0 0 -5.4.314 6.023 6.023 0 0 1 -.703.045z" fill="#d4e1f4"/><path d="m146.25 218.875a6 6 0 0 1 -6-6 57.8 57.8 0 0 1 31.85-51.767 6 6 0 1 1 5.426 10.7 45.851 45.851 0 0 0 -25.28 41.063 6 6 0 0 1 -5.996 6.004z" fill="#d4e1f4"/></svg>