<svg id="Capa_1" enable-background="new 0 0 512 512" height="512" viewBox="0 0 512 512" width="512" xmlns="http://www.w3.org/2000/svg"><g><path d="m19.25 15h473.5v331.38h-473.5z" fill="#f5f0ef"/><path d="m256 15h236.75v331.38h-236.75z" fill="#e0d2ce"/><path d="m419.015 84.073-21.213-21.213-21.302 21.302-21.302-21.302-21.213 21.213 21.302 21.302-21.302 21.302 21.213 21.213 21.302-21.302 21.302 21.302 21.213-21.213-21.302-21.302z" fill="#e00f5b"/><path d="m178.015 234.698-21.213-21.213-21.302 21.302-21.302-21.302-21.213 21.213 21.302 21.302-21.302 21.302 21.213 21.213 21.302-21.302 21.302 21.302 21.213-21.213-21.302-21.302z" fill="#ff5d5c"/><path d="m192 351.999h-68.249l-31.867 160.001h68.249z" fill="#3d3973"/><path d="m320 351.999h68.249l31.867 160.001h-68.249z" fill="#2e2753"/><path d="m346.38 241v30h-105.38v-54.5l-27.97-22.72 18.91-23.29 9.06 7.36v-57.47h-75.38v-30h105.38v87.48l9.06-7.36 18.91 23.28-27.97 22.73v24.49z" fill="#26baff"/><path d="m346.38 241v30h-90.38v-180.62h15v87.48l9.06-7.36 18.91 23.28-27.97 22.73v24.49z" fill="#647cff"/><path d="m0 0h512v30h-512z" fill="#49458a"/><path d="m256 0h256v30h-256z" fill="#3d3973"/><path d="m0 331.38h512v30h-512z" fill="#49458a"/><path d="m256 331.38h256v30h-256z" fill="#3d3973"/><path d="m135.5 150.5c-24.882 0-45.125-20.243-45.125-45.125s20.243-45.125 45.125-45.125 45.125 20.243 45.125 45.125-20.243 45.125-45.125 45.125z" fill="#ffc738"/><path d="m376.5 301.125c-24.882 0-45.125-20.243-45.125-45.125s20.243-45.125 45.125-45.125 45.125 20.243 45.125 45.125-20.243 45.125-45.125 45.125z" fill="#fe9d4e"/></g></svg>