<svg height="512pt" viewBox="-35 0 512 512" width="512pt" xmlns="http://www.w3.org/2000/svg"><path d="m162.609375 234.875 8.253906 21.429688h20.105469l16.523438-40.179688zm0 0" fill="#f4af9d"/><path d="m285.359375 234.875-8.253906 21.429688h-20.101563l-16.523437-40.179688zm0 0" fill="#f4af9d"/><path d="m262.671875 223.46875-1.066406 7.386719-1.265625 8.832031-12.023438 83.71875h-48.65625l-12.035156-83.71875-1.265625-8.832031-1.421875-9.882813 10.5-4.847656 57.589844-2.632812.199218.542968zm0 0" fill="#515f75"/><path d="m223.980469 230.859375h11.839843v92.546875h-11.839843zm0 0" fill="#3b485b"/><path d="m207.492188 216.125 45.734374-2.089844-.203124-.539062-57.585938 2.628906-10.5 4.84375 14.71875 102.4375h12.054688l-16.863282-117.335938zm0 0" fill="#3b485b"/><path d="m285.363281 148.488281v86.386719h-24.328125v-4.019531h-74.097656v4.019531h-24.328125v-86.386719l28.582031-28.582031h65.589844zm0 0" fill="#515f75"/><path d="m256.78125 119.90625 2.179688 28.789062h-12.539063l2.089844 11.492188-20.863281 27.863281h-7.324219l-20.863281-27.863281 2.089843-11.492188h-12.539062l2.179687-28.789062" fill="#3b485b"/><path d="m201.90625 119.90625h-10.714844l-28.582031 28.582031v86.386719h10.714844v-86.386719zm0 0" fill="#3b485b"/><path d="m256.539062 119.953125-22.988281 37.632813-9.570312 15.660156-9.570313-15.660156-22.984375-37.632813zm0 0" fill="#ccc"/><path d="m237.535156 136.941406-13.554687 12.097656-13.550781-12.097656 13.550781-12.109375zm0 0" fill="#f74866"/><path d="m237.535156 119.523438-13.554687 5.308593-13.550781-5.308593 13.550781-18.898438zm0 0" fill="#ea9e8f"/><path d="m233.550781 157.585938-9.570312 15.660156-9.570313-15.660156 9.570313-8.546876zm0 0" fill="#f74866"/><path d="m184.726562 86.027344c-6.425781 0-11.640624-4.667969-11.640624-10.421875 0-5.757813 5.214843-10.421875 11.640624-10.421875h77.527344c6.429688 0 11.640625 4.664062 11.640625 10.421875 0 5.753906-5.210937 10.421875-11.640625 10.421875" fill="#ea9e8f"/><path d="m262.257812 42.371094v38.765625c0 21.410156-17.355468 38.761719-38.765624 38.761719-10.703126 0-20.398438-4.339844-27.410157-11.351563-7.015625-7.011719-11.355469-16.707031-11.355469-27.410156v-38.765625zm0 0" fill="#f9c2af"/><path d="m223.214844 119.898438c-10.59375-.070313-20.175782-4.394532-27.132813-11.351563-7.015625-7.015625-11.355469-16.703125-11.355469-27.410156v-38.761719h17.453126v38.761719c0 10.707031 2.386718 20.394531 6.242187 27.410156 3.796875 6.90625 9.019531 11.21875 14.792969 11.351563zm0 0" fill="#ea9e8f"/><path d="m237.28125 80.714844c-1.421875 0-2.570312-1.152344-2.570312-2.570313v-5.386719c0-1.421874 1.148437-2.570312 2.570312-2.570312 1.417969 0 2.570312 1.148438 2.570312 2.570312v5.386719c0 1.417969-1.152343 2.570313-2.570312 2.570313zm0 0" fill="#293544"/><path d="m209.703125 80.714844c-1.421875 0-2.570313-1.152344-2.570313-2.570313v-5.386719c0-1.421874 1.148438-2.570312 2.570313-2.570312 1.417969 0 2.570313 1.148438 2.570313 2.570312v5.386719c0 1.417969-1.152344 2.570313-2.570313 2.570313zm0 0" fill="#293544"/><path d="m262.257812 42.371094v9.714844c-2.660156 1.902343-5.835937 3.574218-9.609374 4.933593-14.046876 5.058594-27.644532 3.355469-37.261719.675781 0 0 0 0 0-.003906-8.378907-2.332031-13.734375-5.410156-13.734375-5.410156s-3.535156 17.011719-16.921875 17.011719v-26.921875zm0 0" fill="#ea9e8f"/><path d="m252.644531 52.90625c-14.042969 5.0625-27.640625 3.355469-37.257812.675781 0 0-.003907 0-.003907-.003906-8.375-2.332031-13.730468-5.410156-13.730468-5.410156s-3.535156 17.011719-16.925782 17.011719c0 0-8.90625-15.753907-8.625-30.332032.144532-7.5625 6.378907-13.214844 13.460938-13.214844 1.324219 0 2.679688.195313 4.027344.617188 3.792968-10.191406 13.820312-16.640625 24.671875-15.980469 1.691406.105469 3.390625.238281 5.097656.394531.328125.027344.660156.058594.984375.085938.035156.003906.066406.007812.101562.011719 17.714844 1.664062 35.660157 4.902343 46.203126-6.761719 0 0 17.425781 40.144531-18.003907 52.90625zm0 0" fill="#515f75"/><path d="m218.261719 6.269531c1.691406.105469 3.390625.238281 5.097656.394531-15.632813-.660156-28.050781 33.765626-7.976563 46.914063-8.375-2.332031-13.730468-5.410156-13.730468-5.410156s-3.535156 17.011719-16.925782 17.011719c0 0-8.90625-15.757813-8.625-30.335938.144532-7.558594 6.378907-13.210938 13.460938-13.210938 1.324219 0 2.679688.195313 4.027344.613282 3.792968-10.1875 13.816406-16.636719 24.671875-15.976563zm0 0" fill="#3b485b"/><path d="m224.449219 6.765625c-.035157-.007813-.070313-.011719-.105469-.015625.03125.003906.066406.007812.101562.011719zm0 0" fill="#f4af9d"/><path d="m223.492188 101.3125c-4.101563 0-8.207032-1.5625-11.328126-4.683594-1.003906-1.003906-1.003906-2.632812 0-3.636718 1.003907-1.003907 2.632813-1.003907 3.636719 0 4.238281 4.242187 11.140625 4.242187 15.382813 0 1.003906-1.003907 2.632812-1.003907 3.636718 0 1.003907 1.003906 1.003907 2.632812 0 3.636718-3.125 3.121094-7.226562 4.683594-11.328124 4.683594zm0 0" fill="#e06e86"/><g fill="#3b485b"><path d="m261.605469 230.855469-1.265625 8.832031h-72.714844l-1.265625-8.832031zm0 0"/><path d="m219.25 186.613281h8.398438v50.191407h-8.398438zm0 0"/><path d="m264.203125 167.152344c-1.75 0-3.167969 1.417968-3.167969 3.167968v64.554688h6.335938v-64.554688c0-1.75-1.417969-3.167968-3.167969-3.167968zm0 0"/><path d="m183.714844 167.152344c-1.75 0-3.171875 1.417968-3.171875 3.167968v64.554688h6.339843v-64.554688c0-1.75-1.417968-3.167968-3.167968-3.167968zm0 0"/></g><path d="m410.527344 512h-373.074219l46.636719-54.226562 115.574218-134.367188h48.648438l115.5625 134.359375zm0 0" fill="#515f75"/><path d="m210.835938 323.40625-73.679688 188.59375h-99.703125l46.636719-54.226562 115.574218-134.367188zm0 0" fill="#3b485b"/><path d="m363.875 457.765625v.007813l-85.003906-30.121094-54.882813 47.015625-54.128906-46.367188-.765625-.648437-85.003906 30.121094 115.574218-134.367188h48.648438zm0 0" fill="#f2f2f2"/><path d="m210.835938 323.40625-40.976563 104.894531-.765625-.648437-85.003906 30.121094 115.574218-134.367188zm0 0" fill="#ccc"/><path d="m79.921875 206.753906c-1.4375 0-2.847656.109375-4.230469.308594-6.5625-13.085938-20.09375-22.070312-35.730468-22.070312-22.070313 0-39.960938 17.890624-39.960938 39.960937s17.890625 39.960937 39.960938 39.960937h39.960937c16.0625 0 29.082031-13.019531 29.082031-29.082031 0-16.058593-13.019531-29.078125-29.082031-29.078125zm0 0" fill="#e6e6e6"/><path d="m22.984375 224.953125c0-18.074219 12.003906-33.339844 28.46875-38.277344-3.640625-1.089843-7.496094-1.683593-11.492187-1.683593-22.070313 0-39.960938 17.890624-39.960938 39.960937s17.890625 39.960937 39.960938 39.960937h22.984374c-22.070312 0-39.960937-17.890624-39.960937-39.960937zm0 0" fill="#ccc"/><path d="m413.714844 128.398438c-1.433594 0-2.847656.109374-4.226563.308593-6.566406-13.085937-20.09375-22.070312-35.734375-22.070312-22.070312 0-39.960937 17.890625-39.960937 39.960937 0 22.070313 17.890625 39.960938 39.960937 39.960938h39.960938c16.0625 0 29.082031-13.019532 29.082031-29.082032 0-16.058593-13.019531-29.078124-29.082031-29.078124zm0 0" fill="#e6e6e6"/><path d="m356.78125 146.597656c0-18.074218 12-33.339844 28.464844-38.277344-3.640625-1.089843-7.496094-1.683593-11.492188-1.683593-22.070312 0-39.960937 17.890625-39.960937 39.960937 0 22.070313 17.890625 39.960938 39.960937 39.960938h22.988282c-22.070313 0-39.960938-17.890625-39.960938-39.960938zm0 0" fill="#ccc"/></svg>