<svg id="Layer_1" enable-background="new 0 0 497 497" height="512" viewBox="0 0 497 497" width="512" xmlns="http://www.w3.org/2000/svg"><g><g><g><g><path d="m132.042 496.664-20.268-164.584v-122.28h115.042v286.864z" fill="#828cb3"/><path d="m186.816 209.8h40v286.863h-40z" fill="#717eb3"/><g><path d="m94.773 57.521v71.787c0 18.048 11.333 33.442 27.267 39.475v41.017h92.879v-41.018c15.934-6.033 27.267-21.427 27.267-39.475v-71.786z" fill="#ffcab9"/><g fill="#fabba7"><path d="m110.591 74.03c-8.736 0-15.818-7.082-15.818-15.818v-25.2c0-8.736 7.082-15.818 15.818-15.818 8.736 0 15.818 7.082 15.818 15.818v25.2c0 8.737-7.082 15.818-15.818 15.818z"/><path d="m142.226 74.03c-8.736 0-15.818-7.082-15.818-15.818v-42.394c.001-8.736 7.082-15.818 15.818-15.818 8.736 0 15.818 7.082 15.818 15.818v42.395c0 8.736-7.082 15.817-15.818 15.817z"/><path d="m173.861 74.03c-8.736 0-15.818-7.082-15.818-15.818v-42.394c.001-8.736 7.082-15.818 15.818-15.818 8.736 0 15.818 7.082 15.818 15.818v42.395c0 8.736-7.082 15.817-15.818 15.817z"/><path d="m205.496 74.03c-8.736 0-15.818-7.082-15.818-15.818v-42.394c.001-8.736 7.082-15.818 15.818-15.818 8.736 0 15.818 7.082 15.818 15.818v42.395c0 8.736-7.082 15.817-15.818 15.817z"/></g><path d="m242.187 129.307v-71.095c0-8.736-7.082-15.818-15.817-15.818h-52.508c-8.736 0-15.817 7.082-15.817 15.818 0 8.736 7.082 15.818 15.817 15.818h36.691v23.678c-14.653 2.714-29.151 16.538-29.151 35.952" fill="#ffcab9"/></g></g><g><path d="m17 337.137h115.042v159.527h-115.042z" fill="#87dbff"/><path d="m92.042 337.137h40v159.526h-40z" fill="#6bd3ff"/><g><path d="m0 184.857v71.787c0 18.048 11.333 33.442 27.267 39.475v41.018h92.879v-41.018c15.934-6.033 27.267-21.427 27.267-39.475v-71.787z" fill="#ffcab9"/><g fill="#fabba7"><path d="m15.818 201.367c-8.736 0-15.818-7.082-15.818-15.817v-25.2c0-8.736 7.082-15.818 15.818-15.818 8.736 0 15.818 7.082 15.818 15.818v25.2c-.001 8.735-7.083 15.817-15.818 15.817z"/><path d="m47.453 201.367c-8.736 0-15.818-7.082-15.818-15.818v-42.395c0-8.736 7.082-15.818 15.818-15.818 8.736 0 15.818 7.082 15.818 15.818v42.395c-.001 8.736-7.083 15.818-15.818 15.818z"/><path d="m79.088 201.367c-8.736 0-15.818-7.082-15.818-15.818v-42.395c0-8.736 7.082-15.818 15.818-15.818 8.736 0 15.818 7.082 15.818 15.818v42.395c-.001 8.736-7.083 15.818-15.818 15.818z"/><path d="m110.723 201.367c-8.736 0-15.818-7.082-15.818-15.818v-42.395c0-8.736 7.082-15.818 15.818-15.818 8.736 0 15.818 7.082 15.818 15.818v42.395c-.001 8.736-7.082 15.818-15.818 15.818z"/></g><path d="m147.413 256.644v-71.095c0-8.736-7.082-15.818-15.818-15.818h-52.507c-8.736 0-15.817 7.082-15.817 15.818 0 8.736 7.082 15.818 15.817 15.818h36.691v23.678c-14.653 2.714-29.151 16.538-29.151 35.952" fill="#ffcab9"/></g></g></g><g><path d="m388.104 307.885c-4.143 0-7.5-3.358-7.5-7.5v-33.94c0-4.376-3.557-7.937-7.928-7.937h-72.556c-4.371 0-7.928 3.561-7.928 7.937v33.94c0 4.142-3.357 7.5-7.5 7.5s-7.5-3.358-7.5-7.5v-33.94c0-12.647 10.285-22.937 22.928-22.937h72.557c12.643 0 22.928 10.29 22.928 22.937v33.94c-.001 4.142-3.358 7.5-7.501 7.5z" fill="#828cb3"/><path d="m473.015 497h-27.008l-13.039-10-20.373 10h-152.394l-16.706-10-16.706 10h-27.008c-13.247 0-23.985-10.738-23.985-23.985v-157.632c0-13.247 10.738-23.985 23.985-23.985h273.233c13.247 0 23.985 10.738 23.985 23.985v157.632c.001 13.247-10.737 23.985-23.984 23.985z" fill="#cc8b66"/><g><path d="m473.015 291.398h-30c13.247 0 23.985 10.739 23.985 23.985v157.632c0 9.641-5.691 17.948-13.895 21.759l-4.272 2.226h24.182c13.246 0 23.985-10.739 23.985-23.985v-157.632c0-13.247-10.739-23.985-23.985-23.985z" fill="#bf7950"/></g><path d="m473.015 374.915h-273.233c-13.247 0-23.985-10.738-23.985-23.985v-35.547c0-13.247 10.738-23.985 23.985-23.985h27.008l16.397 10 17.015-10h152.394l16.405 10 17.007-10h27.008c13.247 0 23.985 10.738 23.985 23.985v35.547c-.001 13.247-10.739 23.985-23.986 23.985z" fill="#bf7950"/><path d="m473.015 291.398h-30c13.247 0 23.985 10.739 23.985 23.985v59.532h6.015c13.247 0 23.985-10.739 23.985-23.985v-35.547c0-13.247-10.739-23.985-23.985-23.985z" fill="#b06a41"/><g><g><path d="m226.789 291.398h33.412v205.602h-33.412z" fill="#fff6e0"/></g><path d="m412.595 291.398h33.412v205.602h-33.412z" fill="#fff6e0"/></g><path d="m336.398 432.522c-12.309 0-22.287-9.978-22.287-22.286v-54.359h44.573v54.359c.001 12.308-9.977 22.286-22.286 22.286z" fill="#ffea00"/></g><g fill="#ffea00"><path d="m243.495 401.527c-9.227 0-16.706-7.48-16.706-16.706v-93.423h33.412v93.423c0 9.227-7.479 16.706-16.706 16.706z"/><path d="m429.301 401.527c-9.227 0-16.706-7.48-16.706-16.706v-93.423h33.412v93.423c0 9.227-7.479 16.706-16.706 16.706z"/></g></g><g fill="#f2a991"><path d="m115.778 193.867h-36.691c-4.142 0-7.5 3.358-7.5 7.5s3.358 7.5 7.5 7.5h29.191v10.486c-15.05 5.473-29.151 20.597-29.151 41.644 0 4.142 3.358 7.5 7.5 7.5s7.5-3.358 7.5-7.5c0-15.793 11.859-26.511 23.018-28.578 3.555-.659 6.134-3.759 6.134-7.375v-23.678c-.001-4.141-3.359-7.499-7.501-7.499z"/><path d="m210.552 66.53h-36.691c-4.142 0-7.5 3.358-7.5 7.5s3.358 7.5 7.5 7.5h29.191v10.486c-15.05 5.473-29.151 20.597-29.151 41.644 0 4.142 3.358 7.5 7.5 7.5s7.5-3.358 7.5-7.5c0-15.793 11.859-26.511 23.018-28.578 3.555-.659 6.134-3.759 6.134-7.375v-23.677c-.001-4.142-3.359-7.5-7.501-7.5z"/></g></g></svg>